<svg xmlns="http://www.w3.org/2000/svg" id="export" class="canvas" preserveAspectRatio="xMidYMid meet" style="" width="405" height="469"><rect id="background" fill="#fff" pointer-events="all" style="" width="405" height="469"/><g id="origin" transform="translate(18.384515380859376, 18.384515380859376) scale(1)"><g id="clusters" class="clusters"/><g id="edge-paths" class="edge-paths" style="pointer-events: none;"><defs><marker id="arrowhead" viewBox="0 0 10 10" refX="9" refY="5" markerUnits="strokeWidth" markerWidth="8" markerHeight="6" orient="auto" style="fill: rgb(0, 0, 0);"><path d="M 0 0 L 10 5 L 0 10 L 4 5 z" style="stroke-width: 1;"/></marker><marker id="arrowhead-select" viewBox="0 0 10 10" refX="9" refY="5" markerUnits="strokeWidth" markerWidth="8" markerHeight="6" orient="auto" style="fill: rgba(220, 0, 0, 0.9);"><path d="M 0 0 L 10 5 L 0 10 L 4 5 z" style="stroke-width: 1;"/></marker><marker id="arrowhead-hover" viewBox="0 0 10 10" refX="9" refY="5" markerUnits="strokeWidth" markerWidth="8" markerHeight="6" orient="auto" style="fill: rgba(220, 0, 0, 0.9);"><path d="M 0 0 L 10 5 L 0 10 L 4 5 z" style="stroke-width: 1;"/></marker></defs><path id="edge-ball_tick_before" class="edge-path" d="M44.697265625,66.5L44.697265625,68.25C44.697265625,70,44.697265625,73.5,44.697265625,80.5C44.697265625,87.5,44.697265625,98,44.697265625,108.5C44.697265625,119,44.697265625,129.5,56.871114095052086,137.44492561631685C69.04496256510417,145.38985123263373,93.39265950520833,150.77970246526743,105.56650797526042,153.4746280815843L117.7403564453125,156.16955369790116" style="stroke: rgb(0, 0, 0); stroke-width: 1px; fill: none; marker-end: url(&quot;#arrowhead&quot;);"/><path id="edge-ball_tick_after" class="edge-path" d="M149.8857421875,66.5L149.8857421875,68.25C149.8857421875,70,149.8857421875,73.5,149.8857421875,80.5C149.8857421875,87.5,149.8857421875,98,149.8857421875,108.5C149.8857421875,119,149.8857421875,129.5,149.26046776586725,136.41666666666666C148.6351933442345,143.33333333333334,147.384644500969,146.66666666666666,146.75937007933624,148.33333333333334L146.13409565770348,150" style="stroke: rgb(0, 0, 0); stroke-width: 1px; fill: none; marker-end: url(&quot;#arrowhead&quot;);"/><path id="edge-ball_area" class="edge-path" d="M238.942138671875,66.5L238.942138671875,68.25C238.942138671875,70,238.942138671875,73.5,238.942138671875,80.5C238.942138671875,87.5,238.942138671875,98,238.942138671875,108.5C238.942138671875,119,238.942138671875,129.5,226.7682902018229,137.44492561631685C214.59444173177084,145.38985123263373,190.24674479166666,150.77970246526743,178.0728963216146,153.4746280815843L165.8990478515625,156.16955369790116" style="stroke: rgb(0, 0, 0); stroke-width: 1px; fill: none; marker-end: url(&quot;#arrowhead&quot;);"/><path id="edge-material" class="edge-path" d="M321.2908935546875,23L321.2908935546875,24.666666666666668C321.2908935546875,26.333333333333332,321.2908935546875,29.666666666666668,321.2908935546875,35C321.2908935546875,40.333333333333336,321.2908935546875,47.666666666666664,321.2908935546875,55C321.2908935546875,62.333333333333336,321.2908935546875,69.66666666666667,321.2908935546875,75C321.2908935546875,80.33333333333333,321.2908935546875,83.66666666666667,321.2908935546875,85.33333333333333L321.2908935546875,87" style="stroke: rgb(0, 0, 0); stroke-width: 1px; fill: none; marker-end: url(&quot;#arrowhead&quot;);"/><path id="edge-merged_columns" class="edge-path" d="M141.8197021484375,173L141.8197021484375,174.66666666666666C141.8197021484375,176.33333333333334,141.8197021484375,179.66666666666666,141.8197021484375,184.66666666666666C141.8197021484375,189.66666666666666,141.8197021484375,196.33333333333334,141.8197021484375,199.66666666666666L141.8197021484375,203" style="stroke: rgb(0, 0, 0); stroke-width: 1px; fill: none; marker-end: url(&quot;#arrowhead&quot;);"/><path id="edge-material01" class="edge-path" d="M321.2908935546875,130L321.2908935546875,131.66666666666666C321.2908935546875,133.33333333333334,321.2908935546875,136.66666666666666,321.2908935546875,140C321.2908935546875,143.33333333333334,321.2908935546875,146.66666666666666,321.2908935546875,148.33333333333334L321.2908935546875,150" style="stroke: rgb(0, 0, 0); stroke-width: 1px; fill: none; marker-end: url(&quot;#arrowhead&quot;);"/><path id="edge-material01out" class="edge-path" d="M321.2908935546875,173L321.2908935546875,174.66666666666666C321.2908935546875,176.33333333333334,321.2908935546875,179.66666666666666,321.2908935546875,183C321.2908935546875,186.33333333333334,321.2908935546875,189.66666666666666,321.2908935546875,191.33333333333334L321.2908935546875,193" style="stroke: rgb(0, 0, 0); stroke-width: 1px; fill: none; marker-end: url(&quot;#arrowhead&quot;);"/><path id="edge-variable" class="edge-path" d="M141.8197021484375,226L141.8197021484375,229.33333333333334C141.8197021484375,232.66666666666666,141.8197021484375,239.33333333333334,145.34637451171875,244.34271651542585C148.873046875,249.35209969751836,155.9263916015625,252.70419939503674,159.45306396484375,254.3802492437959L162.979736328125,256.0562990925551" style="stroke: rgb(0, 0, 0); stroke-width: 1px; fill: none; marker-end: url(&quot;#arrowhead&quot;);"/><path id="edge-variable1" class="edge-path" d="M321.2908935546875,236L321.2908935546875,237.66666666666666C321.2908935546875,239.33333333333334,321.2908935546875,242.66666666666666,302.93214925130206,247.2738658199553C284.5734049479167,251.88106497324395,247.85591634114584,257.7621299464879,229.4971720377604,260.7026624331099L211.138427734375,263.64319491973185" style="stroke: rgb(0, 0, 0); stroke-width: 1px; fill: none; marker-end: url(&quot;#arrowhead&quot;);"/><path id="edge-transformed_column" class="edge-path" d="M187.05908203125,279L187.05908203125,280.6666666666667C187.05908203125,282.3333333333333,187.05908203125,285.6666666666667,187.05908203125,289C187.05908203125,292.3333333333333,187.05908203125,295.6666666666667,187.05908203125,297.3333333333333L187.05908203125,299" style="stroke: rgb(0, 0, 0); stroke-width: 1px; fill: none; marker-end: url(&quot;#arrowhead&quot;);"/><path id="edge-output" class="edge-path" d="M187.05908203125,322L187.05908203125,323.6666666666667C187.05908203125,325.3333333333333,187.05908203125,328.6666666666667,187.05908203125,332C187.05908203125,335.3333333333333,187.05908203125,338.6666666666667,187.05908203125,340.3333333333333L187.05908203125,342" style="stroke: rgb(0, 0, 0); stroke-width: 1px; fill: none; marker-end: url(&quot;#arrowhead&quot;);"/><path id="edge-target" class="edge-path" d="M187.05908203125,365L187.05908203125,368.6666666666667C187.05908203125,372.3333333333333,187.05908203125,379.6666666666667,187.05908203125,387C187.05908203125,394.3333333333333,187.05908203125,401.6666666666667,187.05908203125,405.3333333333333L187.05908203125,409" style="stroke: rgb(0, 0, 0); stroke-width: 1px; fill: none; marker-end: url(&quot;#arrowhead&quot;);"/></g><g id="edge-labels" class="edge-labels"><text class="edge-label" id="edge-label-edge-ball_tick_before" style="opacity: 1; font-family: -apple-system, BlinkMacSystemFont, &quot;Segoe WPC&quot;, &quot;Segoe UI&quot;, Ubuntu, &quot;Droid Sans&quot;, sans-serif, &quot;PingFang SC&quot;; font-size: 10px;" transform="translate(49.697265625,101.5)"><tspan xml:space="preserve" dy="1em" x="1">?×1</tspan></text><text class="edge-label" id="edge-label-edge-ball_tick_after" style="opacity: 1; font-family: -apple-system, BlinkMacSystemFont, &quot;Segoe WPC&quot;, &quot;Segoe UI&quot;, Ubuntu, &quot;Droid Sans&quot;, sans-serif, &quot;PingFang SC&quot;; font-size: 10px;" transform="translate(154.8857421875,101.5)"><tspan xml:space="preserve" dy="1em" x="1">?×1</tspan></text><text class="edge-label" id="edge-label-edge-ball_area" style="opacity: 1; font-family: -apple-system, BlinkMacSystemFont, &quot;Segoe WPC&quot;, &quot;Segoe UI&quot;, Ubuntu, &quot;Droid Sans&quot;, sans-serif, &quot;PingFang SC&quot;; font-size: 10px;" transform="translate(243.942138671875,101.5)"><tspan xml:space="preserve" dy="1em" x="1">?×1</tspan></text><text class="edge-label" id="edge-label-edge-material" style="opacity: 1; font-family: -apple-system, BlinkMacSystemFont, &quot;Segoe WPC&quot;, &quot;Segoe UI&quot;, Ubuntu, &quot;Droid Sans&quot;, sans-serif, &quot;PingFang SC&quot;; font-size: 10px;" transform="translate(326.2908935546875,48)"><tspan xml:space="preserve" dy="1em" x="1">?×1</tspan></text><text class="edge-label" id="edge-label-edge-target" style="opacity: 1; font-family: -apple-system, BlinkMacSystemFont, &quot;Segoe WPC&quot;, &quot;Segoe UI&quot;, Ubuntu, &quot;Droid Sans&quot;, sans-serif, &quot;PingFang SC&quot;; font-size: 10px;" transform="translate(192.05908203125,380)"><tspan xml:space="preserve" dy="1em" x="1">?×1</tspan></text></g><g id="nodes" class="nodes"><g id="input-name-ball_tick_before" class="node graph-input" style="" transform="translate(0,43.5)"><g class="node-item graph-item-input" transform="translate(0,0)"><path d="M5,0h79.39453125a5,5 0 0 1 5,5v13a5,5 0 0 1 -5,5h-79.39453125a5,5 0 0 1 -5,-5v-13a5,5 0 0 1 5,-5z" style="stroke: rgb(0, 0, 0); fill: rgb(238, 238, 238); stroke-width: 0;"/><text x="6" y="16" style="font-family: -apple-system, BlinkMacSystemFont, &quot;Segoe WPC&quot;, &quot;Segoe UI&quot;, Ubuntu, &quot;Droid Sans&quot;, sans-serif, &quot;PingFang SC&quot;; font-size: 11px; text-rendering: geometricprecision; user-select: none;">ball_tick_before</text><title>float32[?,1]</title></g><path class="node node-border" d="M5,0h79.39453125a5,5 0 0 1 5,5v13a5,5 0 0 1 -5,5h-79.39453125a5,5 0 0 1 -5,-5v-13a5,5 0 0 1 5,-5z" style="stroke: rgb(51, 51, 51); fill: none; stroke-width: 1px;"/></g><g id="input-name-ball_tick_after" class="node graph-input" style="" transform="translate(109.39453125,43.5)"><g class="node-item graph-item-input" transform="translate(0,0)"><path d="M5,0h70.982421875a5,5 0 0 1 5,5v13a5,5 0 0 1 -5,5h-70.982421875a5,5 0 0 1 -5,-5v-13a5,5 0 0 1 5,-5z" style="stroke: rgb(0, 0, 0); fill: rgb(238, 238, 238); stroke-width: 0;"/><text x="6" y="16" style="font-family: -apple-system, BlinkMacSystemFont, &quot;Segoe WPC&quot;, &quot;Segoe UI&quot;, Ubuntu, &quot;Droid Sans&quot;, sans-serif, &quot;PingFang SC&quot;; font-size: 11px; text-rendering: geometricprecision; user-select: none;">ball_tick_after</text><title>float32[?,1]</title></g><path class="node node-border" d="M5,0h70.982421875a5,5 0 0 1 5,5v13a5,5 0 0 1 -5,5h-70.982421875a5,5 0 0 1 -5,-5v-13a5,5 0 0 1 5,-5z" style="stroke: rgb(51, 51, 51); fill: none; stroke-width: 1px;"/></g><g id="input-name-ball_area" class="node graph-input" style="" transform="translate(210.376953125,43.5)"><g class="node-item graph-item-input" transform="translate(0,0)"><path d="M5,0h47.13037109375a5,5 0 0 1 5,5v13a5,5 0 0 1 -5,5h-47.13037109375a5,5 0 0 1 -5,-5v-13a5,5 0 0 1 5,-5z" style="stroke: rgb(0, 0, 0); fill: rgb(238, 238, 238); stroke-width: 0;"/><text x="6" y="16" style="font-family: -apple-system, BlinkMacSystemFont, &quot;Segoe WPC&quot;, &quot;Segoe UI&quot;, Ubuntu, &quot;Droid Sans&quot;, sans-serif, &quot;PingFang SC&quot;; font-size: 11px; text-rendering: geometricprecision; user-select: none;">ball_area</text><title>float32[?,1]</title></g><path class="node node-border" d="M5,0h47.13037109375a5,5 0 0 1 5,5v13a5,5 0 0 1 -5,5h-47.13037109375a5,5 0 0 1 -5,-5v-13a5,5 0 0 1 5,-5z" style="stroke: rgb(51, 51, 51); fill: none; stroke-width: 1px;"/></g><g id="input-name-material" class="node graph-input" style="" transform="translate(294.6346435546875,0)"><g class="node-item graph-item-input" transform="translate(0,0)"><path d="M5,0h43.3125a5,5 0 0 1 5,5v13a5,5 0 0 1 -5,5h-43.3125a5,5 0 0 1 -5,-5v-13a5,5 0 0 1 5,-5z" style="stroke: rgb(0, 0, 0); fill: rgb(238, 238, 238); stroke-width: 0;"/><text x="6" y="16" style="font-family: -apple-system, BlinkMacSystemFont, &quot;Segoe WPC&quot;, &quot;Segoe UI&quot;, Ubuntu, &quot;Droid Sans&quot;, sans-serif, &quot;PingFang SC&quot;; font-size: 11px; text-rendering: geometricprecision; user-select: none;">material</text><title>string[?,1]</title></g><path class="node node-border" d="M5,0h43.3125a5,5 0 0 1 5,5v13a5,5 0 0 1 -5,5h-43.3125a5,5 0 0 1 -5,-5v-13a5,5 0 0 1 5,-5z" style="stroke: rgb(51, 51, 51); fill: none; stroke-width: 1px;"/></g><g id="node-name-Concat" class="node graph-node" style="" transform="translate(117.7403564453125,150)"><g class="node-item node-item-type node-item-type-tensor" transform="translate(0,0)"><path d="M5,0h38.15869140625a5,5 0 0 1 5,5v13a5,5 0 0 1 -5,5h-38.15869140625a5,5 0 0 1 -5,-5v-13a5,5 0 0 1 5,-5z" style="stroke: rgb(0, 0, 0); fill: rgb(89, 66, 59); stroke-width: 0;"/><text x="6" y="16" style="font-family: -apple-system, BlinkMacSystemFont, &quot;Segoe WPC&quot;, &quot;Segoe UI&quot;, Ubuntu, &quot;Droid Sans&quot;, sans-serif, &quot;PingFang SC&quot;; font-size: 11px; text-rendering: geometricprecision; user-select: none; fill: rgb(255, 255, 255);">Concat</text><title>Concat</title></g><path class="node node-border" d="M5,0h38.15869140625a5,5 0 0 1 5,5v13a5,5 0 0 1 -5,5h-38.15869140625a5,5 0 0 1 -5,-5v-13a5,5 0 0 1 5,-5z" style="stroke: rgb(51, 51, 51); fill: none; stroke-width: 1px;"/></g><g id="node-name-Gather" class="node graph-node" style="" transform="translate(283.7908935546875,87)"><g class="node-item node-item-type node-item-type-transform" transform="translate(0,0)"><path d="M5,0h65a5,5 0 0 1 5,5v18a0,0 0 0 1 0,0h-75a0,0 0 0 1 0,0v-18a5,5 0 0 1 5,-5z" style="stroke: rgb(0, 0, 0); fill: rgb(51, 85, 68); stroke-width: 0;"/><text x="6" y="16" style="font-family: -apple-system, BlinkMacSystemFont, &quot;Segoe WPC&quot;, &quot;Segoe UI&quot;, Ubuntu, &quot;Droid Sans&quot;, sans-serif, &quot;PingFang SC&quot;; font-size: 11px; text-rendering: geometricprecision; user-select: none; fill: rgb(255, 255, 255);">Gather</text><title>Gather</title></g><g class="node-argument-list" transform="translate(0,23)"><path d="M0,0h75a0,0 0 0 1 0,0v15a5,5 0 0 1 -5,5h-65a5,5 0 0 1 -5,-5v-15a0,0 0 0 1 0,0z" style="stroke: rgb(0, 0, 0); fill: rgb(255, 255, 255); stroke-width: 0;"/><g class="node-argument"><rect rx="3" ry="3" x="3" y="3" width="69" height="14" style="fill: transparent;"/><text xml:space="preserve" x="6" y="14" style="font-family: -apple-system, BlinkMacSystemFont, &quot;Segoe WPC&quot;, &quot;Segoe UI&quot;, Ubuntu, &quot;Droid Sans&quot;, sans-serif, &quot;PingFang SC&quot;; font-size: 9px; font-weight: normal; text-rendering: geometricprecision; user-select: none;"><title>int64[1]</title><tspan style="font-weight: bold;">indices</tspan><tspan>〈1〉</tspan></text></g><line class="node" x1="0" x2="75" y1="0" y2="0" style="stroke: rgb(51, 51, 51); fill: none; stroke-width: 1px;"/></g><path class="node node-border" d="M5,0h65a5,5 0 0 1 5,5v33a5,5 0 0 1 -5,5h-65a5,5 0 0 1 -5,-5v-33a5,5 0 0 1 5,-5z" style="stroke: rgb(51, 51, 51); fill: none; stroke-width: 1px;"/></g><g id="node-name-OneHotEncoder" class="node graph-node" style="" transform="translate(274.8914794921875,150)"><g class="node-item node-item-type" transform="translate(0,0)"><path d="M5,0h82.798828125a5,5 0 0 1 5,5v13a5,5 0 0 1 -5,5h-82.798828125a5,5 0 0 1 -5,-5v-13a5,5 0 0 1 5,-5z" style="stroke: rgb(0, 0, 0); fill: rgb(0, 0, 0); stroke-width: 0;"/><text x="6" y="16" style="font-family: -apple-system, BlinkMacSystemFont, &quot;Segoe WPC&quot;, &quot;Segoe UI&quot;, Ubuntu, &quot;Droid Sans&quot;, sans-serif, &quot;PingFang SC&quot;; font-size: 11px; text-rendering: geometricprecision; user-select: none; fill: rgb(255, 255, 255);">OneHotEncoder</text><title>OneHotEncoder</title></g><path class="node node-border" d="M5,0h82.798828125a5,5 0 0 1 5,5v13a5,5 0 0 1 -5,5h-82.798828125a5,5 0 0 1 -5,-5v-13a5,5 0 0 1 5,-5z" style="stroke: rgb(51, 51, 51); fill: none; stroke-width: 1px;"/></g><g id="node-name-Scaler" class="node graph-node" style="" transform="translate(119.8507080078125,203)"><g class="node-item node-item-type" transform="translate(0,0)"><path d="M5,0h33.93798828125a5,5 0 0 1 5,5v13a5,5 0 0 1 -5,5h-33.93798828125a5,5 0 0 1 -5,-5v-13a5,5 0 0 1 5,-5z" style="stroke: rgb(0, 0, 0); fill: rgb(0, 0, 0); stroke-width: 0;"/><text x="6" y="16" style="font-family: -apple-system, BlinkMacSystemFont, &quot;Segoe WPC&quot;, &quot;Segoe UI&quot;, Ubuntu, &quot;Droid Sans&quot;, sans-serif, &quot;PingFang SC&quot;; font-size: 11px; text-rendering: geometricprecision; user-select: none; fill: rgb(255, 255, 255);">Scaler</text><title>Scaler</title></g><path class="node node-border" d="M5,0h33.93798828125a5,5 0 0 1 5,5v13a5,5 0 0 1 -5,5h-33.93798828125a5,5 0 0 1 -5,-5v-13a5,5 0 0 1 5,-5z" style="stroke: rgb(51, 51, 51); fill: none; stroke-width: 1px;"/></g><g id="node-name-Reshape" class="node graph-node" style="" transform="translate(283.7908935546875,193)"><g class="node-item node-item-type node-item-type-shape" transform="translate(0,0)"><path d="M5,0h65a5,5 0 0 1 5,5v18a0,0 0 0 1 0,0h-75a0,0 0 0 1 0,0v-18a5,5 0 0 1 5,-5z" style="stroke: rgb(0, 0, 0); fill: rgb(108, 79, 71); stroke-width: 0;"/><text x="6" y="16" style="font-family: -apple-system, BlinkMacSystemFont, &quot;Segoe WPC&quot;, &quot;Segoe UI&quot;, Ubuntu, &quot;Droid Sans&quot;, sans-serif, &quot;PingFang SC&quot;; font-size: 11px; text-rendering: geometricprecision; user-select: none; fill: rgb(255, 255, 255);">Reshape</text><title>Reshape</title></g><g class="node-argument-list" transform="translate(0,23)"><path d="M0,0h75a0,0 0 0 1 0,0v15a5,5 0 0 1 -5,5h-65a5,5 0 0 1 -5,-5v-15a0,0 0 0 1 0,0z" style="stroke: rgb(0, 0, 0); fill: rgb(255, 255, 255); stroke-width: 0;"/><g class="node-argument"><rect rx="3" ry="3" x="3" y="3" width="69" height="14" style="fill: transparent;"/><text xml:space="preserve" x="6" y="14" style="font-family: -apple-system, BlinkMacSystemFont, &quot;Segoe WPC&quot;, &quot;Segoe UI&quot;, Ubuntu, &quot;Droid Sans&quot;, sans-serif, &quot;PingFang SC&quot;; font-size: 9px; font-weight: normal; text-rendering: geometricprecision; user-select: none;"><title>int64[2]</title><tspan style="font-weight: bold;">shape</tspan><tspan>〈2〉</tspan></text></g><line class="node" x1="0" x2="75" y1="0" y2="0" style="stroke: rgb(51, 51, 51); fill: none; stroke-width: 1px;"/></g><path class="node node-border" d="M5,0h65a5,5 0 0 1 5,5v33a5,5 0 0 1 -5,5h-65a5,5 0 0 1 -5,-5v-33a5,5 0 0 1 5,-5z" style="stroke: rgb(51, 51, 51); fill: none; stroke-width: 1px;"/></g><g id="node-name-Concat1" class="node graph-node" style="" transform="translate(162.979736328125,256)"><g class="node-item node-item-type node-item-type-tensor" transform="translate(0,0)"><path d="M5,0h38.15869140625a5,5 0 0 1 5,5v13a5,5 0 0 1 -5,5h-38.15869140625a5,5 0 0 1 -5,-5v-13a5,5 0 0 1 5,-5z" style="stroke: rgb(0, 0, 0); fill: rgb(89, 66, 59); stroke-width: 0;"/><text x="6" y="16" style="font-family: -apple-system, BlinkMacSystemFont, &quot;Segoe WPC&quot;, &quot;Segoe UI&quot;, Ubuntu, &quot;Droid Sans&quot;, sans-serif, &quot;PingFang SC&quot;; font-size: 11px; text-rendering: geometricprecision; user-select: none; fill: rgb(255, 255, 255);">Concat</text><title>Concat1</title></g><path class="node node-border" d="M5,0h38.15869140625a5,5 0 0 1 5,5v13a5,5 0 0 1 -5,5h-38.15869140625a5,5 0 0 1 -5,-5v-13a5,5 0 0 1 5,-5z" style="stroke: rgb(51, 51, 51); fill: none; stroke-width: 1px;"/></g><g id="node-name-LightGbmLGBMRegressor" class="node graph-node" style="" transform="translate(121.78515625,299)"><g class="node-item node-item-type" transform="translate(0,0)"><path d="M5,0h120.5478515625a5,5 0 0 1 5,5v13a5,5 0 0 1 -5,5h-120.5478515625a5,5 0 0 1 -5,-5v-13a5,5 0 0 1 5,-5z" style="stroke: rgb(0, 0, 0); fill: rgb(0, 0, 0); stroke-width: 0;"/><text x="6" y="16" style="font-family: -apple-system, BlinkMacSystemFont, &quot;Segoe WPC&quot;, &quot;Segoe UI&quot;, Ubuntu, &quot;Droid Sans&quot;, sans-serif, &quot;PingFang SC&quot;; font-size: 11px; text-rendering: geometricprecision; user-select: none; fill: rgb(255, 255, 255);">TreeEnsembleRegressor</text><title>LightGbmLGBMRegressor</title></g><path class="node node-border" d="M5,0h120.5478515625a5,5 0 0 1 5,5v13a5,5 0 0 1 -5,5h-120.5478515625a5,5 0 0 1 -5,-5v-13a5,5 0 0 1 5,-5z" style="stroke: rgb(51, 51, 51); fill: none; stroke-width: 1px;"/></g><g id="node-name-Cast" class="node graph-node" style="" transform="translate(169.521728515625,342)"><g class="node-item node-item-type" transform="translate(0,0)"><path d="M5,0h25.07470703125a5,5 0 0 1 5,5v13a5,5 0 0 1 -5,5h-25.07470703125a5,5 0 0 1 -5,-5v-13a5,5 0 0 1 5,-5z" style="stroke: rgb(0, 0, 0); fill: rgb(0, 0, 0); stroke-width: 0;"/><text x="6" y="16" style="font-family: -apple-system, BlinkMacSystemFont, &quot;Segoe WPC&quot;, &quot;Segoe UI&quot;, Ubuntu, &quot;Droid Sans&quot;, sans-serif, &quot;PingFang SC&quot;; font-size: 11px; text-rendering: geometricprecision; user-select: none; fill: rgb(255, 255, 255);">Cast</text><title>Cast</title></g><path class="node node-border" d="M5,0h25.07470703125a5,5 0 0 1 5,5v13a5,5 0 0 1 -5,5h-25.07470703125a5,5 0 0 1 -5,-5v-13a5,5 0 0 1 5,-5z" style="stroke: rgb(51, 51, 51); fill: none; stroke-width: 1px;"/></g><g class="node" style="" transform="translate(164.869873046875,409)"><g class="node-item graph-item-output" transform="translate(0,0)"><path d="M5,0h34.37841796875a5,5 0 0 1 5,5v13a5,5 0 0 1 -5,5h-34.37841796875a5,5 0 0 1 -5,-5v-13a5,5 0 0 1 5,-5z" style="stroke: rgb(0, 0, 0); fill: rgb(238, 238, 238); stroke-width: 0;"/><text x="6" y="16" style="font-family: -apple-system, BlinkMacSystemFont, &quot;Segoe WPC&quot;, &quot;Segoe UI&quot;, Ubuntu, &quot;Droid Sans&quot;, sans-serif, &quot;PingFang SC&quot;; font-size: 11px; text-rendering: geometricprecision; user-select: none;">target</text><title>float32[?,1]</title></g><path class="node node-border" d="M5,0h34.37841796875a5,5 0 0 1 5,5v13a5,5 0 0 1 -5,5h-34.37841796875a5,5 0 0 1 -5,-5v-13a5,5 0 0 1 5,-5z" style="stroke: rgb(51, 51, 51); fill: none; stroke-width: 1px;"/></g></g></g></svg>